<mxfile host="app.diagrams.net" modified="2024-04-15T06:03:47.654Z" agent="Mozilla/5.0 (Windows NT 10.0; Win64; x64) AppleWebKit/537.36 (KHTML, like Gecko) Chrome/123.0.0.0 Safari/537.36" version="24.2.5" etag="GqklFPQoMyDnRuTH6PZ_" type="github">
  <diagram name="Page-1" id="7Ut78TMcZdS7S1b4Gevj">
    <mxGraphModel>
      <root>
        <mxCell id="0" />
        <mxCell id="1" parent="0" />
      </root>
    </mxGraphModel>
  </diagram>
</mxfile>
